<svg width="100" height="80" viewBox="0 0 100 80" fill="none" xmlns="http://www.w3.org/2000/svg">
<path d="M40.0676 10.0065C41.4497 9.92732 42.825 10.6126 43.5644 11.8933L73.8352 64.3241C74.8795 66.1338 74.2599 68.4476 72.4504 69.4925C70.6408 70.5373 68.3257 69.9172 67.2807 68.1077L40.0676 20.9732L12.8545 68.1077C11.8096 69.9172 9.49449 70.5371 7.68484 69.4925C5.87569 68.4476 5.25584 66.1336 6.30009 64.3241L36.5709 11.8933C37.3103 10.6127 38.6856 9.92738 40.0676 10.0065Z" fill="#28E98C"/>
<path d="M57.5218 11.0635C58.5552 10.0619 60.0921 9.72625 61.4622 10.235C61.4698 10.2378 61.4775 10.2403 61.485 10.2431C61.527 10.259 61.5687 10.2765 61.6104 10.294C61.626 10.3006 61.6424 10.3067 61.658 10.3135C61.6878 10.3265 61.7174 10.3405 61.7471 10.3544C61.7858 10.3723 61.8249 10.39 61.8631 10.4093C61.8687 10.4122 61.8742 10.4158 61.8798 10.4187C61.9282 10.4435 61.9765 10.4695 62.0239 10.4964C62.0293 10.4995 62.0346 10.5027 62.04 10.5058C62.0465 10.5096 62.0529 10.5141 62.0594 10.5179C62.1055 10.5447 62.1512 10.5722 62.1962 10.601C62.2008 10.604 62.2056 10.6067 62.2102 10.6097C62.6971 10.9248 63.1189 11.3565 63.4288 11.8933L93.6996 64.3241C94.7443 66.1339 94.1245 68.4476 92.3148 69.4925C90.5053 70.5368 88.1914 69.917 87.1465 68.1077L60.1365 21.3251L55.8193 28.7569L51.4788 21.238L56.8783 11.8886C56.8805 11.8848 56.8822 11.8803 56.8844 11.8765C56.9433 11.7755 57.0076 11.6766 57.0761 11.5809C57.0843 11.5694 57.0926 11.5575 57.1009 11.5461C57.1221 11.5172 57.1445 11.488 57.1666 11.4596C57.1889 11.4308 57.2119 11.4018 57.2349 11.3738C57.2479 11.3582 57.2613 11.3424 57.2745 11.3269C57.2996 11.2974 57.325 11.2677 57.3509 11.2391C57.3672 11.2212 57.3845 11.2031 57.4012 11.1855C57.4299 11.1549 57.4593 11.1244 57.489 11.095C57.4996 11.0844 57.511 11.0739 57.5218 11.0635Z" fill="#28E98C"/>
<path d="M56.505 68.8282H23.521L40.0127 40.2639L56.505 68.8282Z" fill="#28E98C"/>
<path d="M86.2001 11.8933C87.2449 10.0836 89.5594 9.46386 91.3691 10.5085C93.1785 11.5535 93.7985 13.8673 92.7539 15.6769L80.4386 37.0058L76.0712 29.4379L86.2001 11.8933Z" fill="#28E98C"/>
</svg>
